HIERARCHY
ROOT Hips
{
	OFFSET 0.000000 91.450211 0.000000
	CHANNELS 6 Xposition Yposition Zposition Xrotation Yrotation Zrotation
	JOINT Spine
	{
		OFFSET 0.000000 8.782394 0.768360
		CHANNELS 6 Xposition Yposition Zposition Xrotation Yrotation Zrotation
		JOINT Spine1
		{
			OFFSET 0.000000 11.084404 -0.062565
			CHANNELS 6 Xposition Yposition Zposition Xrotation Yrotation Zrotation
			JOINT Spine2
			{
				OFFSET 0.000000 10.927498 -1.859395
				CHANNELS 6 Xposition Yposition Zposition Xrotation Yrotation Zrotation
				JOINT Neck
				{
					OFFSET 0.000000 26.862015 1.174324
					CHANNELS 6 Xposition Yposition Zposition Xrotation Yrotation Zrotation
					JOINT Head
					{
						OFFSET 0.000000 12.051392 3.567542
						CHANNELS 3 Xrotation Yrotation Zrotation
						JOINT Head_Effector
						{
							OFFSET 0.000000 12.832352 0.868121
							CHANNELS 6 Xposition Yposition Zposition Xrotation Yrotation Zrotation
							End Site
							{
								OFFSET 0.000000 12.832336 0.868115
							}
						}
					}
				}
				JOINT LeftShoulder
				{
					OFFSET 2.147111 18.134659 2.271481
					CHANNELS 6 Xposition Yposition Zposition Xrotation Yrotation Zrotation
					JOINT LeftArm
					{
						OFFSET 17.312775 1.551712 -3.358366
						CHANNELS 3 Xrotation Yrotation Zrotation
						JOINT LeftForeArm
						{
							OFFSET 28.902603 0.503342 -2.320875
							CHANNELS 3 Xrotation Yrotation Zrotation
							JOINT LeftHand
							{
								OFFSET 23.916840 0.447495 1.945404
								CHANNELS 3 Xrotation Yrotation Zrotation
								JOINT LeftHandMiddle1
								{
									OFFSET 9.516891 1.595703 0.764819
									CHANNELS 6 Xposition Yposition Zposition Xrotation Yrotation Zrotation
									JOINT LeftHandMiddle2
									{
										OFFSET 3.885864 0.101303 0.315890
										CHANNELS 3 Xrotation Yrotation Zrotation
										JOINT LeftHandMiddle3
										{
											OFFSET 2.789856 0.072708 0.226794
											CHANNELS 3 Xrotation Yrotation Zrotation
											JOINT LeftHandMiddle4
											{
												OFFSET 2.550720 0.066513 0.207354
												CHANNELS 6 Xposition Yposition Zposition Xrotation Yrotation Zrotation
												End Site
												{
													OFFSET 2.550735 0.066498 0.207355
												}
											}
										}
									}
								}
								JOINT LeftHandThumb1
								{
									OFFSET 2.640549 -0.502533 3.629733
									CHANNELS 6 Xposition Yposition Zposition Xrotation Yrotation Zrotation
									JOINT LeftHandThumb2
									{
										OFFSET 2.309532 -0.256302 3.736356
										CHANNELS 6 Xposition Yposition Zposition Xrotation Yrotation Zrotation
										JOINT LeftHandThumb3
										{
											OFFSET 2.099869 -0.374146 2.774999
											CHANNELS 6 Xposition Yposition Zposition Xrotation Yrotation Zrotation
											JOINT LeftHandThumb4
											{
												OFFSET 1.607483 -0.325363 1.952581
												CHANNELS 3 Xrotation Yrotation Zrotation
												End Site
												{
													OFFSET 1.607498 -0.325333 1.952586
												}
											}
										}
									}
								}
								JOINT LeftHandRing1
								{
									OFFSET 9.133362 0.876816 -1.569385
									CHANNELS 6 Xposition Yposition Zposition Xrotation Yrotation Zrotation
									JOINT LeftHandRing2
									{
										OFFSET 3.288040 0.085709 0.267292
										CHANNELS 3 Xrotation Yrotation Zrotation
										JOINT LeftHandRing3
										{
											OFFSET 2.690231 0.070160 0.218695
											CHANNELS 3 Xrotation Yrotation Zrotation
											JOINT LeftHandRing4
											{
												OFFSET 2.291656 0.059738 0.186295
												CHANNELS 3 Xrotation Yrotation Zrotation
												End Site
												{
													OFFSET 2.291672 0.059708 0.186294
												}
											}
										}
									}
								}
								JOINT LeftHandPinky1
								{
									OFFSET 8.910561 0.188904 -3.690031
									CHANNELS 6 Xposition Yposition Zposition Xrotation Yrotation Zrotation
									JOINT LeftHandPinky2
									{
										OFFSET 2.989113 0.077927 0.242991
										CHANNELS 3 Xrotation Yrotation Zrotation
										JOINT LeftHandPinky3
										{
											OFFSET 1.992752 0.051971 0.161997
											CHANNELS 3 Xrotation Yrotation Zrotation
											JOINT LeftHandPinky4
											{
												OFFSET 1.793480 0.046738 0.145796
												CHANNELS 3 Xrotation Yrotation Zrotation
												End Site
												{
													OFFSET 1.793480 0.046753 0.145796
												}
											}
										}
									}
								}
								JOINT LeftHandIndex1
								{
									OFFSET 9.228851 1.601791 3.450318
									CHANNELS 6 Xposition Yposition Zposition Xrotation Yrotation Zrotation
									JOINT LeftHandIndex2
									{
										OFFSET 3.423752 0.089264 0.278325
										CHANNELS 6 Xposition Yposition Zposition Xrotation Yrotation Zrotation
										JOINT LeftHandIndex3
										{
											OFFSET 2.490936 0.064941 0.202494
											CHANNELS 3 Xrotation Yrotation Zrotation
											JOINT LeftHandIndex4
											{
												OFFSET 2.291687 0.059723 0.186295
												CHANNELS 3 Xrotation Yrotation Zrotation
												End Site
												{
													OFFSET 2.291672 0.059738 0.186296
												}
											}
										}
									}
								}
							}
						}
					}
				}
				JOINT RightShoulder
				{
					OFFSET -2.147111 18.135147 2.271447
					CHANNELS 6 Xposition Yposition Zposition Xrotation Yrotation Zrotation
					JOINT RightArm
					{
						OFFSET -17.312773 1.551712 -3.358366
						CHANNELS 3 Xrotation Yrotation Zrotation
						JOINT RightForeArm
						{
							OFFSET -28.902605 0.503342 -2.320875
							CHANNELS 3 Xrotation Yrotation Zrotation
							JOINT RightHand
							{
								OFFSET -23.916840 0.447479 1.945404
								CHANNELS 3 Xrotation Yrotation Zrotation
								JOINT RightHandMiddle1
								{
									OFFSET -9.516899 1.595703 0.764821
									CHANNELS 6 Xposition Yposition Zposition Xrotation Yrotation Zrotation
									JOINT RightHandMiddle2
									{
										OFFSET -3.885857 0.101303 0.315890
										CHANNELS 3 Xrotation Yrotation Zrotation
										JOINT RightHandMiddle3
										{
											OFFSET -2.789864 0.072723 0.226793
											CHANNELS 3 Xrotation Yrotation Zrotation
											JOINT RightHandMiddle4
											{
												OFFSET -2.550728 0.066513 0.207354
												CHANNELS 6 Xposition Yposition Zposition Xrotation Yrotation Zrotation
												End Site
												{
													OFFSET -2.550720 0.066498 0.207353
												}
											}
										}
									}
								}
								JOINT RightHandThumb1
								{
									OFFSET -2.640556 -0.502533 3.629735
									CHANNELS 6 Xposition Yposition Zposition Xrotation Yrotation Zrotation
									JOINT RightHandThumb2
									{
										OFFSET -2.309555 -0.256256 3.736347
										CHANNELS 6 Xposition Yposition Zposition Xrotation Yrotation Zrotation
										JOINT RightHandThumb3
										{
											OFFSET -2.099869 -0.374115 2.774992
											CHANNELS 3 Xrotation Yrotation Zrotation
											JOINT RightHandThumb4
											{
												OFFSET -1.607506 -0.325348 1.952590
												CHANNELS 3 Xrotation Yrotation Zrotation
												End Site
												{
													OFFSET -1.607506 -0.325333 1.952587
												}
											}
										}
									}
								}
								JOINT RightHandRing1
								{
									OFFSET -9.133369 0.876831 -1.569383
									CHANNELS 6 Xposition Yposition Zposition Xrotation Yrotation Zrotation
									JOINT RightHandRing2
									{
										OFFSET -3.288048 0.085709 0.267292
										CHANNELS 3 Xrotation Yrotation Zrotation
										JOINT RightHandRing3
										{
											OFFSET -2.690201 0.070145 0.218692
											CHANNELS 3 Xrotation Yrotation Zrotation
											JOINT RightHandRing4
											{
												OFFSET -2.291672 0.059738 0.186296
												CHANNELS 3 Xrotation Yrotation Zrotation
												End Site
												{
													OFFSET -2.291672 0.059723 0.186296
												}
											}
										}
									}
								}
								JOINT RightHandPinky1
								{
									OFFSET -8.910568 0.188904 -3.690030
									CHANNELS 6 Xposition Yposition Zposition Xrotation Yrotation Zrotation
									JOINT RightHandPinky2
									{
										OFFSET -2.989128 0.077927 0.242992
										CHANNELS 3 Xrotation Yrotation Zrotation
										JOINT RightHandPinky3
										{
											OFFSET -1.992744 0.051987 0.161997
											CHANNELS 3 Xrotation Yrotation Zrotation
											JOINT RightHandPinky4
											{
												OFFSET -1.793488 0.046738 0.145796
												CHANNELS 3 Xrotation Yrotation Zrotation
												End Site
												{
													OFFSET -1.793488 0.046768 0.145796
												}
											}
										}
									}
								}
								JOINT RightHandIndex1
								{
									OFFSET -9.228859 1.601807 3.450319
									CHANNELS 6 Xposition Yposition Zposition Xrotation Yrotation Zrotation
									JOINT RightHandIndex2
									{
										OFFSET -3.589912 0.093582 0.291831
										CHANNELS 3 Xrotation Yrotation Zrotation
										JOINT RightHandIndex3
										{
											OFFSET -2.490936 0.064941 0.202494
											CHANNELS 3 Xrotation Yrotation Zrotation
											JOINT RightHandIndex4
											{
												OFFSET -2.291672 0.059769 0.186295
												CHANNELS 3 Xrotation Yrotation Zrotation
												End Site
												{
													OFFSET -2.291656 0.059708 0.186294
												}
											}
										}
									}
								}
							}
						}
					}
				}
			}
		}
	}
	JOINT LeftUpLeg
	{
		OFFSET 8.746565 -4.280060 1.650660
		CHANNELS 6 Xposition Yposition Zposition Xrotation Yrotation Zrotation
		JOINT LeftLeg
		{
			OFFSET 1.512180 -39.821030 -2.735137
			CHANNELS 3 Xrotation Yrotation Zrotation
			JOINT LeftFoot
			{
				OFFSET 1.466830 -38.479496 -4.337268
				CHANNELS 3 Xrotation Yrotation Zrotation
				JOINT LeftToeBase
				{
					OFFSET 0.215393 -6.925917 13.942376
					CHANNELS 3 Xrotation Yrotation Zrotation
					JOINT LeftToeBase_Effector
					{
						OFFSET -0.018629 -0.046691 6.174702
						CHANNELS 3 Xrotation Yrotation Zrotation
						End Site
						{
							OFFSET -0.018630 -0.046693 6.174702
						}
					}
				}
			}
		}
	}
	JOINT RightUpLeg
	{
		OFFSET -8.746565 -4.280060 1.650660
		CHANNELS 6 Xposition Yposition Zposition Xrotation Yrotation Zrotation
		JOINT RightLeg
		{
			OFFSET -1.512180 -39.821030 -2.735137
			CHANNELS 3 Xrotation Yrotation Zrotation
			JOINT RightFoot
			{
				OFFSET -1.466830 -38.479496 -4.337268
				CHANNELS 3 Xrotation Yrotation Zrotation
				JOINT RightToeBase
				{
					OFFSET -0.215393 -6.925917 13.942376
					CHANNELS 3 Xrotation Yrotation Zrotation
					JOINT RightToeBase_Effector
					{
						OFFSET 0.018629 -0.046690 6.174490
						CHANNELS 3 Xrotation Yrotation Zrotation
						End Site
						{
							OFFSET 0.018629 -0.046691 6.174490
						}
					}
				}
			}
		}
	}
}
MOTION
Frames: 4
Frame Time: 0.008333
0.000000 91.450211 -0.000000 -0.000000 0.000000 -0.000000 -0.000000 8.782402 0.768361 0.000000 -0.000000 0.000000 -0.000000 11.084389 -0.062565 -0.000000 -0.000000 -0.000000 -0.000000 10.927505 -1.859395 0.000002 -0.000000 -0.000000 0.000000 26.862000 1.174315 0.000002 0.000000 -0.000000 -0.018312 -0.000000 0.000000 -0.000000 12.832269 0.868109 0.018228 -0.000000 -0.000000 2.147113 18.134659 2.271479 0.000000 -0.000002 -0.000000 -0.000000 0.000001 -0.000000 -0.000000 -0.000000 0.000002 0.000000 0.000001 -0.000005 9.516891 1.595713 0.764821 1.568818 -0.407547 -19.929295 1.191418 -0.254788 -14.948079 1.191422 -0.254786 -14.948070 2.550715 0.066520 0.207353 -0.000001 0.000000 -0.000001 2.640553 -0.502528 3.629735 5.868452 37.374269 2.177876 2.309545 -0.256276 3.736356 6.801993 13.055362 -3.803226 2.099844 -0.374170 2.774994 6.801977 13.055378 -3.803238 -0.000003 0.000001 0.000001 9.133362 0.876802 -1.569383 0.666120 -3.288221 -21.930180 1.191416 -0.254792 -14.948074 1.191420 -0.254786 -14.948076 0.000001 -0.000000 -0.000001 8.910559 0.188901 -3.690031 0.330153 -4.249256 -23.943259 1.191428 -0.254781 -14.948070 1.191412 -0.254794 -14.948069 -0.000000 -0.000000 0.000004 9.228865 1.601796 3.450321 2.838843 3.385542 -19.996786 3.423755 0.089270 0.278324 1.191414 -0.254792 -14.948077 1.191406 -0.254798 -14.948077 -0.000000 -0.000000 -0.000002 -2.147111 18.135147 2.271445 0.000000 0.000003 -0.000000 0.000000 0.000002 0.000001 -0.000000 0.000000 -0.000002 0.000000 -0.000000 0.000005 -9.516894 1.595678 0.764820 1.568822 0.407545 19.929288 1.191410 0.254795 14.948079 1.191410 0.254795 14.948062 -2.550699 0.066533 0.207351 -0.000000 0.000000 0.000000 -2.640558 -0.502545 3.629738 5.868358 -37.374320 -2.177541 -2.309557 -0.256276 3.736358 6.801929 -13.055379 3.803322 6.801931 -13.055370 3.803345 -0.000002 0.000004 -0.000003 -9.133387 0.876817 -1.569383 0.666115 3.288226 21.930173 1.191415 0.254793 14.948069 1.191418 0.254789 14.948076 -0.000000 0.000000 0.000003 -8.910546 0.188867 -3.690031 0.330158 4.249257 23.943257 1.191435 0.254778 14.948076 1.191408 0.254797 14.948072 -0.000000 -0.000000 0.000003 -9.228863 1.601788 3.450320 2.838841 -3.385541 19.996784 1.191415 0.254792 14.948072 1.191412 0.254794 14.948070 -0.000000 -0.000001 -0.000001 8.746565 -4.280052 1.650660 0.000000 -0.000000 0.000000 -0.000002 -0.000000 0.000000 0.000003 0.000000 -0.000000 0.000003 0.000000 0.000000 0.000001 0.000000 0.000000 -8.746565 -4.280052 1.650660 0.000000 0.000000 -0.000000 -0.000002 0.000000 -0.000000 0.000003 -0.000000 0.000000 0.000003 -0.000000 -0.000000 0.000001 -0.000000 -0.000000 
-0.729879 90.206528 -0.653938 -1.425195 -0.308686 -1.031957 -0.000000 8.782401 0.768360 5.440917 0.320936 0.563998 0.000000 11.084395 -0.062566 1.404347 0.482502 0.716665 -0.000000 10.927510 -1.859393 0.701294 0.292321 0.319772 -0.000000 26.861998 1.174313 -2.693447 -0.759807 -0.655928 -2.725025 -0.894535 -0.455628 -0.000000 12.832284 0.868112 0.018228 -0.000000 -0.000000 2.147109 18.134651 2.271477 3.703332 -19.119822 -10.909022 -8.839796 -40.043176 -46.438535 0.032805 -6.515201 0.450235 -29.437562 7.292938 10.466631 9.516898 1.595694 0.764817 1.568817 -0.407552 -19.929292 1.191424 -0.254791 -14.948076 1.191421 -0.254783 -14.948074 2.550725 0.066529 0.207357 0.000000 -0.000003 0.000001 2.640556 -0.502534 3.629736 5.868458 37.374273 2.177876 2.309538 -0.256283 3.736355 6.801985 13.055370 -3.803227 2.099853 -0.374177 2.775001 6.801985 13.055376 -3.803238 -0.000001 0.000008 0.000009 9.133365 0.876804 -1.569386 0.666120 -3.288218 -21.930173 1.191416 -0.254799 -14.948076 1.191412 -0.254784 -14.948076 0.000006 0.000007 0.000003 8.910563 0.188886 -3.690034 0.330153 -4.249255 -23.943252 1.191432 -0.254784 -14.948067 1.191405 -0.254790 -14.948088 0.000002 -0.000004 0.000001 9.228849 1.601796 3.450317 2.838842 3.385540 -19.996789 3.423755 0.089251 0.278320 1.191411 -0.254793 -14.948067 1.191404 -0.254793 -14.948077 0.000004 0.000003 0.000000 -2.147113 18.135139 2.271443 3.038838 16.993529 7.920176 -14.147864 34.186384 48.107328 0.052058 11.576691 -0.794923 -34.688458 1.897860 0.752968 -9.516891 1.595702 0.764816 1.568817 0.407551 19.929295 1.191411 0.254797 14.948077 1.191419 0.254788 14.948065 -2.550705 0.066524 0.207347 -0.000001 -0.000000 0.000003 -2.640570 -0.502527 3.629730 5.868363 -37.374320 -2.177533 -2.309575 -0.256276 3.736349 6.801928 -13.055376 3.803327 6.801937 -13.055372 3.803343 -0.000004 0.000004 0.000001 -9.133387 0.876830 -1.569391 0.666113 3.288230 21.930177 1.191418 0.254793 14.948074 1.191417 0.254794 14.948070 -0.000005 0.000002 -0.000002 -8.910570 0.188886 -3.690034 0.330157 4.249261 23.943257 1.191426 0.254776 14.948069 1.191420 0.254786 14.948086 0.000000 -0.000001 0.000001 -9.228848 1.601826 3.450312 2.838839 -3.385538 19.996791 1.191407 0.254787 14.948060 1.191427 0.254797 14.948088 -0.000001 -0.000000 -0.000001 8.746564 -4.280050 1.650656 -26.511017 2.588927 8.018079 54.525581 1.316323 -4.120417 0.212387 -13.201074 1.697272 -7.564928 -1.050960 -0.149330 -0.000002 -0.000000 0.000000 -8.746564 -4.280055 1.650657 -16.975619 4.002075 2.613886 12.895578 0.747678 -0.090762 -2.098384 0.549213 4.668547 -3.453501 0.385760 0.049304 0.000002 0.000000 0.000000 
-0.821514 90.234917 0.445523 -1.467709 -0.503051 -1.021846 0.000000 8.782383 0.768359 5.483128 0.671076 0.544990 0.000000 11.084390 -0.062564 1.461321 0.946080 0.655948 0.000000 10.927511 -1.859396 0.729751 0.517198 0.255899 -0.000000 26.861984 1.174322 -2.829748 -1.100597 -0.804605 -2.860168 -1.260961 -0.519002 -0.000000 12.832253 0.868110 0.018228 -0.000000 0.000000 2.147110 18.134644 2.271481 3.740491 -18.393582 -11.742840 -7.493970 -39.963232 -47.375094 0.031697 -6.245267 0.431648 -29.148847 7.664979 10.193058 9.516906 1.595715 0.764817 1.568820 -0.407546 -19.929290 1.191422 -0.254794 -14.948086 1.191417 -0.254780 -14.948060 2.550713 0.066513 0.207354 -0.000000 -0.000002 -0.000000 2.640558 -0.502530 3.629734 5.868440 37.374283 2.177898 2.309551 -0.256279 3.736351 6.802010 13.055352 -3.803242 2.099865 -0.374156 2.775001 6.801965 13.055377 -3.803238 -0.000002 0.000003 0.000001 9.133357 0.876823 -1.569384 0.666119 -3.288220 -21.930175 1.191415 -0.254793 -14.948086 1.191426 -0.254791 -14.948072 -0.000002 0.000001 0.000002 8.910552 0.188901 -3.690031 0.330152 -4.249263 -23.943255 1.191427 -0.254774 -14.948070 1.191410 -0.254793 -14.948070 0.000003 -0.000001 -0.000005 9.228853 1.601794 3.450314 2.838846 3.385543 -19.996774 3.423752 0.089272 0.278329 1.191413 -0.254787 -14.948077 1.191402 -0.254795 -14.948077 0.000002 -0.000002 -0.000002 -2.147113 18.135126 2.271447 3.027759 17.797830 6.922830 -16.795573 33.248965 47.733286 0.060508 12.329501 -0.848108 -35.567066 1.965425 0.318700 -9.516902 1.595698 0.764823 1.568816 0.407547 19.929278 1.191414 0.254791 14.948072 1.191409 0.254794 14.948064 -2.550705 0.066524 0.207331 0.000002 0.000003 0.000003 -2.640577 -0.502524 3.629736 5.868353 -37.374317 -2.177541 -2.309566 -0.256267 3.736343 6.801927 -13.055377 3.803324 6.801929 -13.055376 3.803338 -0.000005 0.000007 -0.000002 -9.133390 0.876840 -1.569387 0.666113 3.288234 21.930156 1.191411 0.254783 14.948069 1.191419 0.254783 14.948079 -0.000004 -0.000000 0.000005 -8.910562 0.188891 -3.690031 0.330165 4.249257 23.943240 1.191431 0.254774 14.948053 1.191409 0.254802 14.948081 -0.000000 0.000000 0.000000 -9.228855 1.601819 3.450324 2.838832 -3.385542 19.996767 1.191422 0.254784 14.948076 1.191407 0.254803 14.948077 0.000002 -0.000003 -0.000003 8.746563 -4.280066 1.650654 -27.814214 2.656715 8.001057 52.559412 1.410918 -3.953137 -0.169290 -13.001741 1.761436 -7.415220 -1.030397 -0.145040 -0.000001 0.000000 0.000001 -8.746565 -4.280066 1.650659 -16.512735 4.210370 2.774514 13.516810 0.763728 -0.059976 -2.463136 0.823651 3.909576 -3.471531 0.387768 0.049624 -0.000000 0.000000 0.000000 
-0.910335 90.242531 1.551365 -1.512470 -0.696037 -1.049182 -0.000000 8.782408 0.768360 5.519504 1.031897 0.545668 0.000000 11.084389 -0.062566 1.510603 1.425859 0.620348 -0.000000 10.927507 -1.859394 0.754619 0.751920 0.203253 -0.000000 26.861992 1.174316 -2.932252 -1.438849 -0.963400 -2.960261 -1.627340 -0.592910 -0.000000 12.832253 0.868108 0.018228 0.000000 0.000000 2.147113 18.134645 2.271480 3.783212 -17.574186 -12.700008 -6.269804 -39.767520 -48.169438 0.030500 -5.925125 0.409612 -27.816570 7.949552 9.380852 9.516906 1.595709 0.764820 1.568820 -0.407547 -19.929290 1.191417 -0.254789 -14.948076 1.191415 -0.254786 -14.948065 2.550730 0.066515 0.207351 0.000003 0.000000 -0.000001 2.640547 -0.502541 3.629733 5.868454 37.374269 2.177882 2.309542 -0.256273 3.736348 6.801991 13.055357 -3.803223 2.099855 -0.374156 2.775007 6.801984 13.055390 -3.803246 -0.000000 0.000007 -0.000002 9.133354 0.876821 -1.569380 0.666120 -3.288227 -21.930180 1.191419 -0.254794 -14.948074 1.191413 -0.254787 -14.948082 0.000000 -0.000002 -0.000002 8.910543 0.188897 -3.690027 0.330152 -4.249255 -23.943242 1.191442 -0.254785 -14.948086 1.191410 -0.254798 -14.948070 -0.000001 0.000001 0.000000 9.228853 1.601810 3.450323 2.838842 3.385541 -19.996777 3.423755 0.089240 0.278318 1.191417 -0.254790 -14.948067 1.191410 -0.254795 -14.948079 -0.000003 -0.000000 -0.000001 -2.147112 18.135151 2.271445 3.010868 18.501306 5.907988 -19.207322 32.399508 47.185768 0.068432 12.980697 -0.894337 -36.073924 2.694857 -0.131428 -9.516902 1.595677 0.764827 1.568817 0.407550 19.929293 1.191412 0.254793 14.948067 1.191418 0.254798 14.948084 -2.550699 0.066548 0.207351 0.000005 0.000005 0.000001 -2.640575 -0.502545 3.629740 5.868348 -37.374314 -2.177530 -2.309550 -0.256280 3.736352 6.801930 -13.055385 3.803310 6.801937 -13.055380 3.803348 0.000000 0.000003 0.000003 -9.133370 0.876825 -1.569374 0.666117 3.288222 21.930170 1.191407 0.254792 14.948069 1.191417 0.254792 14.948077 0.000000 0.000004 0.000001 -8.910559 0.188883 -3.690023 0.330165 4.249261 23.943250 1.191429 0.254775 14.948060 1.191407 0.254788 14.948076 -0.000001 0.000001 -0.000000 -9.228844 1.601809 3.450329 2.838841 -3.385538 19.996782 1.191415 0.254801 14.948082 1.191408 0.254801 14.948072 -0.000007 -0.000002 0.000002 8.746564 -4.280056 1.650657 -29.049908 2.691959 7.978375 50.458067 1.504669 -3.772524 -0.226917 -12.573888 1.929126 -7.087389 -0.985313 -0.135819 0.000000 -0.000000 -0.000000 -8.746565 -4.280057 1.650659 -16.047547 4.319318 2.950765 14.099529 0.768235 -0.030670 -3.064460 1.083288 3.391040 -3.299225 0.368603 0.046605 0.000001 -0.000001 -0.000001 
